# File produced by Open Asset Import Library (http://www.assimp.sf.net)
# (assimp v5.0.1588609223)

mtllib result.mtl

# 397 vertex positions
v  -0.5 0.019999916 -2.3
v  0.5 0.019999916 -2.3
v  0.5 0.020000083 -3.3
v  -0.5 0.020000083 -3.3
v  -0.505 0.015000084 -3.3
v  -0.505 0.014999915 -2.3
v  -0.505 0.014999915 -2.2950001
v  -0.5 0.014999915 -2.2950001
v  0.5 0.014999915 -2.2950001
v  0.505 0.014999915 -2.2950001
v  0.505 0.014999915 -2.3
v  0.505 0.015000084 -3.3
v  0.505 0.015000084 -3.3049998
v  0.5 0.015000084 -3.3049998
v  -0.5 0.015000084 -3.3049998
v  -0.505 0.015000084 -3.3049998
v  -1.6500001 0.019999916 -2.3
v  -0.70000005 0.019999916 -2.3
v  -0.70000005 0.020000083 -3.3
v  -1.6500001 0.020000083 -3.3
v  -1.6750001 0.029999916 -2.3
v  -1.6750001 0.030000083 -3.3
v  -1.7 -8.4293696e-08 -2.3
v  -1.7 8.4293696e-08 -3.3
v  -1.6500001 0.015000084 -3.3049998
v  -1.6750001 0.025000084 -3.3049998
v  -0.70000005 0.015000084 -3.3049998
v  -1.7 -0.0049999147 -3.3049998
v  -1.7 -0.0050000851 -2.2950001
v  -1.6750001 0.024999913 -2.2950001
v  -1.6500001 0.014999915 -2.2950001
v  -0.70000005 0.014999915 -2.2950001
v  -0.69500005 0.014999915 -2.2950001
v  -0.69500005 0.014999915 -2.3
v  -0.69500005 0.015000084 -3.3
v  -0.69500005 0.015000084 -3.3049998
v  -1.6500001 0.030000079 -4.4749999
v  -0.70000005 0.030000079 -4.4749999
v  -0.70000005 8.4293696e-08 -4.5
v  -1.6500001 8.4293696e-08 -4.5
v  -1.6500001 0.019999923 -3.5500002
v  -0.70000005 0.019999923 -3.5500002
v  -0.70000005 0.020000076 -4.4499998
v  -1.6500001 0.020000076 -4.4499998
v  -1.6500001 0.029999919 -3.5250001
v  -0.70000005 0.029999919 -3.5250001
v  -1.6750001 0.029999919 -3.5250001
v  -1.6750001 0.029999923 -3.5500002
v  -1.6750001 0.030000076 -4.4499998
v  -1.6750001 0.030000079 -4.4749999
v  -1.6750001 8.4293696e-08 -4.5
v  -1.6750001 -8.4293696e-08 -3.5
v  -1.6500001 -8.4293696e-08 -3.5
v  -0.70000005 -8.4293696e-08 -3.5
v  -1.7 -8.4293696e-08 -3.5
v  -1.7 -8.0078998e-08 -3.5250001
v  -1.7 8.0079012e-08 -4.4749999
v  -1.7 8.4293696e-08 -4.5
v  -1.7 -7.5864307e-08 -3.5500002
v  -1.7 7.5864328e-08 -4.4499998
v  -0.69500005 0.024999918 -3.5250001
v  -0.69500005 0.014999924 -3.5500002
v  -0.69500005 0.025000079 -4.4749999
v  -0.69500005 -0.0049999156 -4.5
v  -0.69500005 0.015000075 -4.4499998
v  -0.69500005 -0.0050000842 -3.5
v  -0.47500011 0.029999986 -3.5250001
v  -0.50000012 -1.7274594e-08 -3.5250001
v  -0.50000012 -1.305991e-08 -3.5
v  -0.47500011 -8.192238e-09 -3.5
v  0.49999991 0.030000176 -3.5249999
v  -0.45000011 0.029999992 -3.5250001
v  -0.45000011 -3.3245513e-09 -3.5
v  0.49999991 1.8164729e-07 -3.5
v  0.50000012 0.020000013 -4.5
v  -0.44999993 0.019999828 -4.5
v  -0.45000011 0.019999988 -3.5500002
v  0.49999991 0.020000173 -3.55
v  -0.47499993 0.029999822 -4.5
v  -0.49999991 -1.8164729e-07 -4.5
v  -0.50000006 -2.1489278e-08 -3.5500002
v  -0.47500011 0.029999983 -3.5500002
v  0.50499988 -0.0049998173 -3.5
v  0.50499988 0.025000177 -3.5249999
v  0.50499994 0.015000174 -3.55
v  0.50500011 0.015000014 -4.5
v  -0.47499993 0.024999822 -4.5050001
v  -0.49999991 -0.0050001824 -4.5050001
v  0.50500011 0.015000013 -4.5050001
v  0.50000012 0.015000012 -4.5050001
v  -0.44999993 0.014999827 -4.5050001
v  0.70000005 0.030000079 -4.4749999
v  1.7 0.030000079 -4.4749999
v  1.7 8.4293696e-08 -4.5
v  0.70000005 8.4293696e-08 -4.5
v  0.70000005 0.019999923 -3.5500002
v  1.7 0.019999923 -3.5500002
v  1.7 0.020000076 -4.4499998
v  0.70000005 0.020000076 -4.4499998
v  0.70000005 0.029999919 -3.5250001
v  1.7 0.029999919 -3.5250001
v  0.70000005 -8.4293696e-08 -3.5
v  1.7 -8.4293696e-08 -3.5
v  0.69500005 -0.0049999156 -4.5
v  0.69500005 0.025000079 -4.4749999
v  0.69500005 0.014999924 -3.5500002
v  0.69500005 0.024999918 -3.5250001
v  0.69500005 0.015000075 -4.4499998
v  0.69500005 -0.0050000842 -3.5
v  1.705 0.014999924 -3.5500002
v  1.705 0.015000075 -4.4499998
v  1.705 0.024999918 -3.5250001
v  1.705 0.025000079 -4.4749999
v  1.705 -0.0049999156 -4.5
v  1.705 -0.0050000842 -3.5
v  -3.45 0.030000079 -0.47500002
v  -2.5 0.030000079 -0.47500002
v  -2.5 8.4293696e-08 -0.5
v  -3.45 8.4293696e-08 -0.5
v  -3.45 0.019999923 0.44999987
v  -2.5 0.019999923 0.44999987
v  -2.5 0.020000076 -0.45000002
v  -3.45 0.020000076 -0.45000005
v  -3.45 0.029999919 0.47499993
v  -2.5 0.029999919 0.47499993
v  -3.4749999 0.029999919 0.47499993
v  -3.4749999 0.029999923 0.44999987
v  -3.4749999 0.030000076 -0.45000005
v  -3.4749999 0.030000079 -0.47500002
v  -3.4749999 8.4293696e-08 -0.5
v  -3.4749999 -8.4293696e-08 0.5
v  -3.45 -8.4293696e-08 0.5
v  -2.5 -8.4293696e-08 0.5
v  -3.5 -8.4293696e-08 0.5
v  -3.5 -8.0078998e-08 0.47499993
v  -3.5 8.0079012e-08 -0.47500002
v  -3.5 8.4293696e-08 -0.5
v  -3.5 -7.5864307e-08 0.44999987
v  -3.5 7.5864328e-08 -0.45000002
v  -2.4949999 0.024999918 0.47499993
v  -2.4949999 0.014999924 0.44999987
v  -2.4949999 0.025000079 -0.47500002
v  -2.4949999 -0.0049999156 -0.5
v  -2.4949999 0.015000075 -0.45000002
v  -2.4949999 -0.0050000842 0.5
v  -1.4750001 0.029999986 1.4749998
v  -1.5000001 -1.7274594e-08 1.4749998
v  -1.5000001 -1.305991e-08 1.4999998
v  -1.4750001 -8.192238e-09 1.4999998
v  -0.50000012 0.030000176 1.4749999
v  -1.45 0.029999992 1.4749998
v  -1.45 -3.3245513e-09 1.4999998
v  -0.50000012 1.8164729e-07 1.5
v  -0.49999988 0.020000013 0.49999991
v  -1.4499999 0.019999828 0.49999976
v  -1.45 0.019999988 1.4499998
v  -0.50000012 0.020000173 1.4499999
v  -1.4749999 0.029999822 0.4999997
v  -1.4999999 -1.8164729e-07 0.4999997
v  -1.5 -2.1489278e-08 1.4499998
v  -1.4750001 0.029999983 1.4499998
v  -0.49500012 -0.0049998173 1.5
v  -0.49500012 0.025000177 1.4749999
v  -0.49500006 0.015000174 1.4499999
v  -0.49499989 0.015000014 0.49999991
v  -1.4749999 0.024999822 0.49499971
v  -1.4999999 -0.0050001824 0.49499971
v  -0.49499989 0.015000013 0.49499995
v  -0.49999988 0.015000012 0.49499995
v  -1.4499999 0.014999827 0.49499977
v  -1.5 0.019999916 0.5
v  -0.5 0.019999916 0.5
v  -0.5 0.020000083 -0.5
v  -1.5 0.020000083 -0.5
v  -1.505 0.015000084 -0.5
v  -1.505 0.014999915 0.5
v  -1.505 0.014999915 0.505
v  -1.5 0.014999915 0.505
v  -0.5 0.014999915 0.505
v  -0.495 0.014999915 0.505
v  -0.495 0.014999915 0.5
v  -0.495 0.015000084 -0.5
v  -0.495 0.015000084 -0.505
v  -0.5 0.015000084 -0.505
v  -1.5 0.015000084 -0.505
v  -1.505 0.015000084 -0.505
v  -1.5 0.030000079 -0.47500002
v  -1.5 8.4293696e-08 -0.5
v  -1.5 0.019999923 0.44999987
v  -1.5 0.020000076 -0.45000002
v  -1.5 0.029999919 0.47499993
v  -1.5 -8.4293696e-08 0.5
v  -2.5050001 -0.0049999156 -0.5
v  -2.5050001 0.025000079 -0.47500002
v  -2.5050001 0.014999924 0.44999987
v  -2.5050001 0.024999918 0.47499993
v  -2.5050001 0.015000075 -0.45000002
v  -2.5050001 -0.0050000842 0.5
v  -1.495 0.014999924 0.44999987
v  -1.495 0.015000075 -0.45000002
v  -1.495 0.024999918 0.47499993
v  -1.495 0.025000079 -0.47500002
v  -1.495 -0.0049999156 -0.5
v  -1.495 -0.0050000842 0.5
v  0.49999997 0.019999884 1.4499998
v  0.5 0.01999994 0.49999985
v  -0.49999997 0.020000119 0.49999982
v  -0.5 0.020000063 1.4499998
v  0.49999997 0.029999882 1.4749999
v  -0.5 0.030000061 1.4749998
v  0.49999997 -1.1920928e-07 1.4999998
v  -0.5 5.9604645e-08 1.4999998
v  -0.505 0.015000063 1.4499998
v  -0.505 0.02500006 1.4749998
v  -0.505 0.01500012 0.49999976
v  -0.505 -0.0049999394 1.4999998
v  0.505 -0.00500012 1.4999999
v  0.505 0.024999879 1.4749999
v  0.505 0.014999882 1.4499998
v  0.505 0.014999939 0.49999985
v  0.50500005 0.014999939 0.49499989
v  0.50000006 0.01499994 0.49499983
v  -0.49999997 0.015000119 0.49499983
v  -0.50499994 0.01500012 0.49499977
v  1.4749998 0.030000113 1.4750001
v  1.4749998 1.1473893e-07 1.5
v  1.4999998 1.1920928e-07 1.5
v  1.4999998 1.1771916e-07 1.4750001
v  1.4750003 0.030000055 0.50000006
v  1.4749998 0.030000111 1.45
v  1.4999998 1.1622905e-07 1.45
v  1.5000002 5.9604673e-08 0.50000006
v  0.50000024 0.01999988 0.49999958
v  0.49999976 0.019999936 1.4499996
v  1.4499998 0.020000108 1.45
v  1.4500003 0.02000005 0.5
v  0.49999976 0.029999938 1.4749997
v  0.49999976 -5.9604673e-08 1.4999995
v  1.4499998 1.1026858e-07 1.5
v  1.4499998 0.030000107 1.475
v  1.5000002 -0.0049999407 0.49500006
v  1.4750003 0.025000053 0.49500006
v  1.4500003 0.01500005 0.49500006
v  0.50000024 0.01499988 0.49499959
v  0.49499977 0.024999937 1.4749997
v  0.49499977 -0.0050000604 1.4999995
v  0.49500024 0.01499988 0.49499959
v  0.49500024 0.01499988 0.49999958
v  0.49499977 0.014999936 1.4499996
v  0.5 0.019999916 0.5
v  0.5 0.020000083 -0.5
v  -0.505 0.015000084 -0.5
v  -0.505 0.014999915 0.5
v  -0.505 0.014999915 0.505
v  0.5 0.014999915 0.505
v  0.505 0.014999915 0.505
v  0.505 0.014999915 0.5
v  0.505 0.015000084 -0.5
v  0.505 0.015000084 -0.505
v  0.5 0.015000084 -0.505
v  -0.505 0.015000084 -0.505
v  1.5 0.019999916 0.5
v  1.5 0.020000083 -0.5
v  0.495 0.015000084 -0.5
v  0.495 0.014999915 0.5
v  0.495 0.014999915 0.505
v  1.5 0.014999915 0.505
v  1.505 0.014999915 0.505
v  1.505 0.014999915 0.5
v  1.505 0.015000084 -0.5
v  1.505 0.015000084 -0.505
v  1.5 0.015000084 -0.505
v  0.495 0.015000084 -0.505
v  -1.4749999 0.030000055 -1.4750001
v  -1.4749999 5.587934e-08 -1.5000002
v  -1.4999998 5.9604631e-08 -1.5000002
v  -1.4999999 6.0349691e-08 -1.4750001
v  -1.4750001 0.030000085 -0.50000012
v  -1.4749999 0.030000057 -1.4500002
v  -1.4999999 6.1094752e-08 -1.4500002
v  -1.5000002 8.9406981e-08 -0.50000018
v  -0.50000018 0.01999994 -0.49999982
v  -0.49999988 0.019999912 -1.4499998
v  -1.4499998 0.020000054 -1.4500002
v  -1.4500002 0.020000082 -0.50000012
v  -0.49999982 0.02999991 -1.4749999
v  -0.49999982 -8.9406981e-08 -1.4999998
v  -1.4499998 5.215405e-08 -1.5000001
v  -1.4499998 0.030000051 -1.4750001
v  -1.5000002 -0.0049999105 -0.49500018
v  -1.4750001 0.025000084 -0.49500018
v  -1.4500002 0.015000082 -0.49500012
v  -0.50000018 0.01499994 -0.49499983
v  -0.49499983 0.024999909 -1.4749999
v  -0.49499983 -0.0050000902 -1.4999998
v  -0.49500018 0.014999939 -0.49499983
v  -0.49500018 0.014999939 -0.49999982
v  -0.49499989 0.014999911 -1.4499998
v  -0.49999994 0.019999938 -1.4500003
v  -0.50000006 0.01999991 -0.5000003
v  0.49999994 0.020000059 -0.50000018
v  0.50000006 0.020000087 -1.4500002
v  -0.49999994 0.02999994 -1.4750004
v  0.50000006 0.030000089 -1.4750001
v  -0.49999994 -5.9604638e-08 -1.5000002
v  0.50000006 8.9406974e-08 -1.5000002
v  0.50500005 0.015000088 -1.4500002
v  0.50500005 0.025000088 -1.4750001
v  0.50499994 0.01500006 -0.50000018
v  0.50500005 -0.0049999095 -1.5000001
v  -0.50499994 -0.0050000604 -1.5000002
v  -0.50499994 0.024999937 -1.4750004
v  -0.50499994 0.014999938 -1.4500003
v  -0.50500005 0.014999909 -0.50000036
v  -0.50500005 0.014999909 -0.4950003
v  -0.50000006 0.01499991 -0.4950003
v  0.49999991 0.015000059 -0.49500018
v  0.50499994 0.01500006 -0.49500018
v  1.475 0.030000079 -1.4750003
v  1.5 8.0079012e-08 -1.4750003
v  1.5 8.4293696e-08 -1.5000002
v  1.475 8.4293696e-08 -1.5000002
v  0.5 0.030000079 -1.4750003
v  1.45 0.030000079 -1.4750003
v  1.45 8.4293696e-08 -1.5000002
v  0.5 8.4293696e-08 -1.5000002
v  0.5 0.019999916 -0.50000024
v  1.45 0.019999916 -0.50000024
v  1.45 0.020000076 -1.4500003
v  0.5 0.020000076 -1.4500003
v  1.475 0.029999916 -0.50000024
v  1.5 -8.4293696e-08 -0.50000024
v  1.5 7.5864328e-08 -1.4500003
v  1.475 0.030000076 -1.4500003
v  0.495 -0.0049999156 -1.5000002
v  0.495 0.025000079 -1.4750003
v  0.495 0.015000075 -1.4500003
v  0.495 0.014999915 -0.50000024
v  1.475 0.024999913 -0.49500024
v  1.5 -0.0050000851 -0.49500024
v  0.495 0.014999915 -0.49500024
v  0.5 0.014999915 -0.49500024
v  1.45 0.014999915 -0.49500024
v  1.5 0.030000079 -0.47500002
v  2.5 0.030000079 -0.47500002
v  2.5 8.4293696e-08 -0.5
v  1.5 8.4293696e-08 -0.5
v  1.5 0.019999923 0.44999987
v  2.5 0.019999923 0.44999987
v  2.5 0.020000076 -0.45000002
v  1.5 0.020000076 -0.45000002
v  1.5 0.029999919 0.47499993
v  2.5 0.029999919 0.47499993
v  1.5 -8.4293696e-08 0.5
v  2.5 -8.4293696e-08 0.5
v  1.495 -0.0049999156 -0.5
v  1.495 0.025000079 -0.47500002
v  1.495 0.014999924 0.44999987
v  1.495 0.024999918 0.47499993
v  1.495 0.015000075 -0.45000002
v  1.495 -0.0050000842 0.5
v  2.5050001 0.014999924 0.44999987
v  2.5050001 0.015000075 -0.45000002
v  2.5050001 0.024999918 0.47499993
v  2.5050001 0.025000079 -0.47500002
v  2.5050001 -0.0049999156 -0.5
v  2.5050001 -0.0050000842 0.5
v  3.45 0.030000152 0.47500008
v  2.5 0.029999997 0.47499993
v  2.5 2.833346e-09 0.49999991
v  3.45 1.5760801e-07 0.50000006
v  3.45 0.019999998 -0.44999981
v  2.5 0.019999843 -0.44999996
v  2.5 0.019999994 0.44999993
v  3.45 0.020000149 0.45000011
v  3.45 0.029999992 -0.47499987
v  2.5 0.029999837 -0.47500002
v  3.4750001 0.029999997 -0.47499985
v  3.4750001 0.030000001 -0.44999978
v  3.4749999 0.030000152 0.45000014
v  3.4749999 0.030000158 0.47500011
v  3.4749999 1.6168102e-07 0.50000006
v  3.4750001 -6.9063617e-09 -0.49999991
v  3.45 -1.097937e-08 -0.49999994
v  2.5 -1.6575403e-07 -0.50000006
v  3.5 -2.833346e-09 -0.49999991
v  3.5 1.3813519e-09 -0.47499985
v  3.5 1.6153935e-07 0.47500011
v  3.5 1.6575403e-07 0.50000006
v  3.5 5.5960427e-09 -0.44999978
v  3.5 1.5732466e-07 0.45000011
v  2.4950001 0.024999836 -0.47500002
v  2.4950001 0.014999841 -0.44999996
v  2.4949999 0.024999997 0.47499993
v  2.4949999 -0.004999998 0.49999991
v  2.4949999 0.014999993 0.44999993
v  2.4950001 -0.0050001666 -0.50000006

# 115 UV coordinates
vt 0.98687065 0.67782193 0
vt 0.67802536 0.67782187 0
vt 0.67802525 0.98666716 0
vt 0.98687059 0.98666728 0
vt 0.98841488 0.98666728 0
vt 0.98841488 0.67782193 0
vt 0.98841488 0.67627776 0
vt 0.98687065 0.67627776 0
vt 0.67802536 0.6762777 0
vt 0.67648113 0.6762777 0
vt 0.67648113 0.67782187 0
vt 0.67648101 0.98666716 0
vt 0.67648101 0.98821145 0
vt 0.67802531 0.98821145 0
vt 0.98687059 0.98821157 0
vt 0.98841488 0.98821157 0
vt 0.025900021 0.32454628 0
vt 0.32131097 0.3245461 0
vt 0.32131088 0.013587356 0
vt 0.025900021 0.013587475 0
vt 0.018126205 0.32454616 0
vt 0.018126093 0.013587475 0
vt 0.010352165 0.32454622 0
vt 0.010352165 0.013587475 0
vt 0.025900133 0.012032628 0
vt 0.018126093 0.012032628 0
vt 0.32131076 0.012032568 0
vt 0.010352165 0.012032628 0
vt 0.010352165 0.32610095 0
vt 0.018126205 0.32610089 0
vt 0.025900021 0.32610089 0
vt 0.32131094 0.32610089 0
vt 0.32286575 0.32610089 0
vt 0.32286581 0.3245461 0
vt 0.32286566 0.013587356 0
vt 0.32286566 0.012032568 0
vt 0.31846416 0.68608785 0
vt 0.31846425 0.98534542 0
vt 0.32633966 0.98534536 0
vt 0.32633957 0.68608797 0
vt 0.027082041 0.68608791 0
vt 0.027082175 0.98534548 0
vt 0.31058925 0.98534548 0
vt 0.31058919 0.68608785 0
vt 0.019206896 0.68608791 0
vt 0.019206956 0.98534548 0
vt 0.019206896 0.67821264 0
vt 0.027082041 0.67821264 0
vt 0.31058919 0.67821264 0
vt 0.31846416 0.67821264 0
vt 0.32633957 0.67821264 0
vt 0.011331558 0.6782127 0
vt 0.011331558 0.68608797 0
vt 0.011331588 0.98534548 0
vt 0.011331558 0.6703375 0
vt 0.019206837 0.6703375 0
vt 0.31846416 0.67033744 0
vt 0.32633957 0.67033744 0
vt 0.027082041 0.6703375 0
vt 0.31058919 0.67033744 0
vt 0.019206956 0.98692036 0
vt 0.027082115 0.9869203 0
vt 0.31846425 0.9869203 0
vt 0.32633966 0.9869203 0
vt 0.31058925 0.98692036 0
vt 0.011331588 0.98692036 0
vt 0.34985057 0.34853512 0
vt 0.34985057 0.34071064 0
vt 0.342026 0.34071064 0
vt 0.342026 0.34853512 0
vt 0.34985057 0.65369076 0
vt 0.34985057 0.35635966 0
vt 0.342026 0.35635966 0
vt 0.342026 0.65369076 0
vt 0.65500599 0.65369058 0
vt 0.65500587 0.35635966 0
vt 0.35767502 0.35635966 0
vt 0.35767502 0.65369076 0
vt 0.65500587 0.34853512 0
vt 0.65500587 0.34071064 0
vt 0.35767502 0.34071064 0
vt 0.35767502 0.34853512 0
vt 0.342026 0.65525556 0
vt 0.34985057 0.65525556 0
vt 0.35767502 0.6552555 0
vt 0.65500599 0.65525538 0
vt 0.65657067 0.34853512 0
vt 0.65657067 0.34071064 0
vt 0.65657085 0.65525538 0
vt 0.65657085 0.65369058 0
vt 0.65657067 0.35635966 0
vt 0.97900325 0.01320672 0
vt 0.97900325 0.32628548 0
vt 0.98683035 0.32628548 0
vt 0.98683035 0.01320672 0
vt 0.68940562 0.01320672 0
vt 0.68940562 0.3262856 0
vt 0.97117651 0.3262856 0
vt 0.97117639 0.01320672 0
vt 0.68157876 0.01320672 0
vt 0.68157876 0.32628548 0
vt 0.67375159 0.01320684 0
vt 0.67375159 0.32628548 0
vt 0.98683035 0.011641264 0
vt 0.97900325 0.011641264 0
vt 0.68940562 0.011641324 0
vt 0.68157876 0.011641324 0
vt 0.97117639 0.011641264 0
vt 0.67375159 0.011641383 0
vt 0.68940574 0.32785076 0
vt 0.97117651 0.32785082 0
vt 0.68157876 0.32785076 0
vt 0.97900325 0.32785076 0
vt 0.98683035 0.32785076 0
vt 0.67375159 0.32785076 0

# 256 vertex normals
vn 6.7502267e-05 1 -2.5453963e-05
vn -2.562255e-05 1 -6.7333684e-05
vn -6.7502267e-05 1 2.5791138e-05
vn 2.562255e-05 1 6.7670851e-05
vn -0.70710713 0.70710647 1.1920923e-07
vn -1.3247132e-05 1 -5.0703977e-05
vn -0.40824822 0.81649637 0.40824884
vn 0 0.70710635 0.70710725
vn -5.120039e-05 1 1.3758447e-05
vn 0.40824822 0.81649637 0.40824884
vn 0.70710713 0.70710647 1.1920923e-07
vn 1.3247132e-05 1 5.1041152e-05
vn 0.40824822 0.81649649 -0.40824854
vn -0.40824822 0.81649649 -0.40824854
vn 5.120039e-05 1 -1.3421271e-05
vn 0 0.70710659 -0.70710701
vn 4.9632035e-05 1 -3.5206765e-05
vn 4.8913062e-05 1 3.5424735e-05
vn -0.2452486 0.96946031 1.6343878e-07
vn -0.76822156 0.64018404 1.0792696e-07
vn -0.14219496 0.69992125 -0.69992203
vn 0.12468076 0.70158875 -0.70158958
vn -0.25250608 0.6841929 -0.68419355
vn 0 0.70710647 -0.70710707
vn -0.64699417 0.53916526 -0.53916544
vn -0.14219481 0.69992101 0.69992232
vn -0.6469965 0.53916365 0.53916425
vn -0.25250661 0.68419254 0.68419367
vn 0.12468186 0.70158839 0.7015897
vn 0 0.70710623 0.70710731
vn 0.057923682 0.95443791 -0.29273403
vn 0 0.96946031 -0.24524836
vn 0 0.64018416 -0.76822144
vn 0 0.6401844 -0.76822138
vn -1.3560057e-06 1 -4.7338945e-06
vn -3.5315752e-05 1 -4.8122351e-05
vn -3.6150217e-05 1 4.8887934e-05
vn -2.2172928e-05 1 2.612668e-05
vn 0.057923891 0.95443791 0.29273397
vn 0 0.96946031 0.24524836
vn -0.28754935 0.91358131 0.28754941
vn -0.29273421 0.95443785 -0.057923414
vn -0.29273435 0.95443779 0.057923898
vn -0.28754985 0.91358107 -0.28754953
vn -0.23851274 0.73127663 -0.63901967
vn -0.23851213 0.73127764 0.63901883
vn 0 0.64018542 0.76822054
vn 0 0.6401853 0.7682206
vn -0.45749512 0.76249373 0.457495
vn -0.63901961 0.73127693 0.23851214
vn -0.63902009 0.73127639 -0.23851249
vn -0.45749632 0.76249242 -0.45749596
vn -0.7682218 0.64018393 1.0792694e-07
vn -0.76822162 0.64018399 1.0792695e-07
vn 0.69992334 0.69991982 0.14219576
vn 0.68419498 0.68419129 0.25250658
vn 0.70158964 0.70158875 -0.12468021
vn 0.53916287 0.53916299 -0.64699823
vn 0.69992054 0.69992226 -0.14219713
vn 0.684192 0.68419337 -0.25250888
vn 0.70158851 0.70158988 0.12468085
vn 0.5391674 0.53916329 0.64699423
vn -0.28755015 0.91358107 0.28754941
vn -0.63902026 0.73127627 0.23851237
vn -0.45749655 0.76249236 0.45749587
vn -0.23851302 0.73127663 0.63901967
vn -2.3651256e-07 0.96946037 0.24524848
vn 0.05792335 0.95443791 0.29273406
vn -2.7422669e-07 0.6401844 0.76822132
vn -2.7422669e-07 0.64018416 0.76822144
vn -6.7324443e-05 1 2.5319836e-05
vn 4.8718346e-05 1 3.5087571e-05
vn -1.9083395e-06 1 -5.4286975e-06
vn -3.5450845e-05 1 -4.8932645e-05
vn -0.24524879 0.96946025 -2.1119047e-07
vn -0.76822168 0.64018387 -2.5750523e-07
vn -0.76822174 0.64018393 -2.5750523e-07
vn -0.29273462 0.95443767 -0.057923943
vn 0.69992131 0.69992161 0.14219758
vn 0.53916264 0.53916311 0.64699835
vn 0.68419248 0.68419284 0.25250927
vn 0.70158976 0.70158863 -0.1246805
vn 0.70710796 0.7071057 1.8469905e-08
vn -0.64699417 0.5391649 -0.53916579
vn -0.14219496 0.69992101 -0.69992226
vn -0.25250608 0.6841926 -0.68419385
vn 1.3052415e-05 1 5.070398e-05
vn 0.40824816 0.81649643 -0.40824875
vn 0.12468076 0.70158851 -0.70158982
vn 1.7053026e-13 0.70710623 -0.70710731
vn 0 0.96946037 -0.24524844
vn 3.5226345e-05 1 -4.8103724e-05
vn -3.528595e-05 1 -4.8140977e-05
vn -3.6209822e-05 1 4.8805978e-05
vn 3.5792589e-05 1 4.8846956e-05
vn 0 0.96946025 0.24524832
vn 0 0.6401853 0.76822066
vn -0.69992143 0.69992143 -0.14219745
vn -0.53916287 0.53916299 -0.64699823
vn -0.68419266 0.68419272 -0.25250915
vn -0.69992232 0.69992071 0.14219657
vn -0.70158964 0.70158875 -0.12468021
vn -0.68419361 0.68419224 0.2525076
vn -0.70158905 0.70158929 0.12468062
vn -0.53916454 0.53916442 0.64699566
vn -3.5196535e-05 1 -4.9572434e-05
vn -6.7323454e-05 1 2.5682151e-05
vn 2.5801361e-05 1 6.7561872e-05
vn 3.5434965e-05 1 -4.8853453e-05
vn 1.5873505e-07 0.96946031 0.24524866
vn 6.8684244e-08 0.64018399 0.76822162
vn -0.69992203 0.69992125 0.14219496
vn -0.70158958 0.70158875 -0.12468076
vn -0.68419355 0.6841929 0.25250608
vn -0.70710707 0.70710647 -4.2632564e-14
vn -0.5391655 0.5391652 0.64699417
vn 0.69992232 0.69992101 0.1421949
vn 0.53916419 0.53916365 0.64699662
vn 0.68419367 0.68419254 0.25250667
vn 0.7015897 0.70158839 -0.12468177
vn 0.70710731 0.70710623 8.4293688e-08
vn 1.376867e-05 1 5.1259995e-05
vn 0.40824887 0.81649637 -0.40824813
vn -0.40824851 0.81649655 -0.40824819
vn 5.1051378e-05 1 -1.3187525e-05
vn 1.6858735e-07 0.70710653 -0.70710707
vn 0.28754932 0.91358113 0.28755
vn 0.23851217 0.73127639 0.63902014
vn 0.45749572 0.76249248 0.45749646
vn 0.63901961 0.73127669 0.23851301
vn 0.24524847 0.96946037 5.9159287e-08
vn 0.29273406 0.95443791 -0.057923511
vn 0.76822132 0.6401844 3.2815854e-07
vn 0.76822144 0.64018416 3.2815862e-07
vn 2.530959e-05 1 6.7070141e-05
vn 3.5077355e-05 1 -4.8972648e-05
vn -5.4389243e-06 1 1.6540262e-06
vn -4.8942882e-05 1 3.5196521e-05
vn -2.9029664e-07 0.96946031 0.24524854
vn -4.8079039e-07 0.6401841 0.7682215
vn -4.8079045e-07 0.64018416 0.76822156
vn -0.057924036 0.95443773 0.29273435
vn 0.14219777 0.69992143 -0.69992143
vn 0.64699847 0.53916293 -0.53916264
vn 0.25250947 0.68419266 -0.6841926
vn -0.12468031 0.70158845 -0.70159
vn 2.1073508e-07 0.70710552 -0.70710814
vn -0.53916597 0.53916508 0.64699388
vn -0.69992232 0.69992101 0.14219458
vn -0.68419391 0.68419266 0.25250572
vn 5.0693758e-05 1 -1.3306712e-05
vn -0.40824863 0.81649631 -0.40824848
vn -0.70158976 0.70158851 -0.12468114
vn -0.70710731 0.70710623 -3.7932182e-07
vn -0.28754938 0.91358113 -0.28755003
vn -0.23851229 0.73127633 -0.63902014
vn -0.45749581 0.76249242 -0.45749649
vn -0.63901967 0.73127663 -0.23851298
vn -0.2452485 0.96946037 -1.0929092e-07
vn -0.29273409 0.95443791 0.057923466
vn -0.76822132 0.6401844 -2.7092156e-07
vn -0.76822144 0.64018416 -2.7092162e-07
vn -2.5339403e-05 1 -6.7159541e-05
vn -3.510715e-05 1 4.8883248e-05
vn 5.4091215e-06 1 -1.7434339e-06
vn 4.8913073e-05 1 -3.5285935e-05
vn 2.248596e-07 0.96946031 -0.24524863
vn 3.4723752e-07 0.64018404 -0.76822156
vn 3.4723752e-07 0.6401841 -0.76822162
vn 0.057923965 0.95443773 -0.29273444
vn -0.14219768 0.69992149 0.69992137
vn -0.64699847 0.53916299 0.53916264
vn -0.25250942 0.68419272 0.6841926
vn 0.12468039 0.70158851 0.70158994
vn -1.2644114e-07 0.70710558 0.70710808
vn 0.53916585 0.53916502 -0.64699399
vn 0.69992232 0.69992101 -0.14219475
vn 0.68419385 0.68419266 -0.25250587
vn -5.0723556e-05 1 1.3217314e-05
vn 0.40824869 0.81649637 0.40824831
vn 0.70158976 0.70158851 0.12468097
vn 0.70710731 0.70710623 2.1073441e-07
vn 3.5226334e-05 1 4.9661841e-05
vn 6.7353263e-05 1 -2.5592737e-05
vn -2.5771551e-05 1 -6.7472472e-05
vn -3.5405166e-05 1 4.894286e-05
vn -1.0791595e-07 0.96946031 -0.24524857
vn 1.9079081e-08 0.64018404 -0.76822156
vn 0.69992203 0.69992125 -0.14219484
vn 0.70158958 0.70158875 0.12468089
vn 0.68419361 0.6841929 -0.25250596
vn 0.70710707 0.70710647 1.2644058e-07
vn 0.53916562 0.53916526 -0.64699411
vn -0.69992232 0.69992101 -0.1421949
vn -0.53916407 0.53916371 -0.64699656
vn -0.68419361 0.68419254 -0.25250667
vn -0.7015897 0.70158839 0.12468178
vn -0.70710731 0.70710623 -8.4293774e-08
vn -1.3738863e-05 1 -5.1170591e-05
vn -0.40824887 0.81649637 0.40824819
vn 0.40824851 0.81649649 0.40824831
vn -5.102158e-05 1 1.3276927e-05
vn -2.1073424e-07 0.70710647 0.70710713
vn 0.28754991 0.91358113 -0.28754947
vn 0.63902009 0.73127639 -0.23851249
vn 0.45749632 0.76249242 -0.45749596
vn 0.23851275 0.73127669 -0.63901973
vn 0 0.96946037 -0.24524848
vn -0.057923593 0.95443791 -0.29273406
vn 0 0.6401844 -0.76822132
vn 6.7129731e-05 1 -2.5319849e-05
vn -4.8913062e-05 1 -3.508756e-05
vn 1.7136333e-06 1 5.428697e-06
vn 3.5256147e-05 1 4.8932638e-05
vn 0.2452486 0.96946031 1.6343878e-07
vn 0.76822156 0.64018404 1.0792696e-07
vn 0.76822162 0.6401841 1.0792697e-07
vn 0.29273444 0.95443773 0.057923887
vn -0.70158988 0.70158851 0.12468064
vn -0.70710808 0.70710558 1.1920908e-07
vn 0.64699417 0.53916502 0.53916568
vn 0.14219496 0.69992101 0.69992226
vn 0.25250608 0.68419266 0.68419379
vn -0.12468076 0.70158851 0.70158982
vn -0.057923887 0.95443791 0.29273403
vn -1.9790116e-07 0.96946031 0.24524836
vn -2.2945838e-07 0.64018416 0.76822144
vn -2.2945842e-07 0.6401844 0.76822138
vn 1.1930842e-06 1 4.7338945e-06
vn 3.5152825e-05 1 4.8122358e-05
vn 3.5987305e-05 1 -4.8887927e-05
vn 2.201001e-05 1 -2.6126676e-05
vn -0.057923999 0.95443791 -0.29273397
vn -1.1798912e-07 0.96946031 -0.24524836
vn 0.28754926 0.91358137 -0.28754935
vn 0.29273406 0.95443791 0.057923462
vn 0.29273421 0.95443785 -0.05792385
vn 0.28754964 0.91358113 0.28754959
vn 0.23851252 0.73127663 0.63901973
vn 0.23851211 0.7312777 -0.63901877
vn 2.0859545e-08 0.64018542 -0.76822054
vn 2.0859574e-08 0.6401853 -0.7682206
vn 0.45749509 0.76249379 -0.45749491
vn 0.63901955 0.73127705 -0.23851204
vn 0.63901991 0.73127645 0.23851259
vn 0.45749611 0.76249254 0.45749605
vn 0.76822168 0.64018404 1.723226e-08
vn 0.7682215 0.6401841 1.7232217e-08
vn -0.69992346 0.6999197 -0.14219588
vn -0.68419504 0.68419117 -0.2525067
vn -0.70158976 0.70158863 0.12468009
vn -0.53916305 0.53916287 0.64699817
vn -0.69992065 0.69992214 0.14219701
vn -0.68419218 0.68419325 0.25250876
vn -0.70158863 0.70158976 -0.12468097
vn -0.53916734 0.53916323 -0.64699429

# Mesh 'Object_0' with 18 faces
g Object_0
usemtl Carpet_01
f  1/1/1 2/2/2 3/3/3
f  1/1/1 3/3/3 4/4/4
f  1/1/1 4/4/4 5/5/5
f  1/1/1 5/5/5 6/6/5
f  1/1/6 6/6/7 7/7/7
f  1/1/6 7/7/7 8/8/7
f  2/2/2 1/1/1 8/8/8
f  2/2/2 8/8/8 9/9/8
f  2/2/9 9/9/10 10/10/10
f  2/2/9 10/10/10 11/11/10
f  3/3/3 2/2/2 11/11/11
f  3/3/3 11/11/11 12/12/11
f  3/3/12 12/12/13 13/13/13
f  3/3/12 13/13/13 14/14/13
f  5/5/14 4/4/15 15/15/14
f  5/5/14 15/15/14 16/16/14
f  4/4/4 3/3/3 14/14/16
f  4/4/4 14/14/16 15/15/16

# Mesh 'Object_1' with 24 faces
g Object_1
usemtl Carpet_01
f  17/17/17 18/18/2 19/19/3
f  17/17/17 19/19/3 20/20/18
f  21/21/19 17/17/17 20/20/18
f  21/21/19 20/20/18 22/22/19
f  23/23/20 21/21/19 22/22/19
f  23/23/20 22/22/19 24/24/20
f  22/22/21 20/20/18 25/25/22
f  22/22/21 25/25/22 26/26/23
f  20/20/18 19/19/3 27/27/24
f  20/20/18 27/27/24 25/25/22
f  24/24/25 22/22/21 26/26/23
f  24/24/25 26/26/23 28/28/25
f  21/21/26 23/23/27 29/29/27
f  21/21/26 29/29/27 30/30/28
f  17/17/17 21/21/26 30/30/28
f  17/17/17 30/30/28 31/31/29
f  18/18/2 17/17/17 31/31/29
f  18/18/2 31/31/29 32/32/30
f  18/18/9 32/32/10 33/33/10
f  18/18/9 33/33/10 34/34/10
f  27/27/13 19/19/12 35/35/13
f  27/27/13 35/35/13 36/36/13
f  19/19/3 18/18/2 34/34/11
f  19/19/3 34/34/11 35/35/11

# Mesh 'Object_2' with 40 faces
g Object_2
usemtl Carpet_01
f  37/37/31 38/38/32 39/39/33
f  37/37/31 39/39/33 40/40/34
f  41/41/35 42/42/36 43/43/37
f  41/41/35 43/43/37 44/44/38
f  45/45/39 46/46/40 42/42/36
f  45/45/39 42/42/36 41/41/35
f  47/47/41 45/45/39 41/41/35
f  47/47/41 41/41/35 48/48/42
f  48/48/42 41/41/35 44/44/38
f  48/48/42 44/44/38 49/49/43
f  50/50/44 37/37/31 40/40/34
f  50/50/44 40/40/34 51/51/45
f  52/52/46 53/53/47 45/45/39
f  52/52/46 45/45/39 47/47/41
f  53/53/47 54/54/48 46/46/40
f  53/53/47 46/46/40 45/45/39
f  55/55/49 52/52/46 47/47/41
f  55/55/49 47/47/41 56/56/50
f  57/57/51 50/50/44 51/51/45
f  57/57/51 51/51/45 58/58/52
f  59/59/53 48/48/42 49/49/43
f  59/59/53 49/49/43 60/60/54
f  56/56/50 47/47/41 48/48/42
f  56/56/50 48/48/42 59/59/53
f  60/60/54 49/49/43 50/50/44
f  60/60/54 50/50/44 57/57/51
f  49/49/43 44/44/38 37/37/31
f  49/49/43 37/37/31 50/50/44
f  44/44/38 43/43/37 38/38/32
f  44/44/38 38/38/32 37/37/31
f  42/42/36 46/46/55 61/61/56
f  42/42/36 61/61/56 62/62/57
f  39/39/58 38/38/59 63/63/60
f  39/39/58 63/63/60 64/64/58
f  38/38/59 43/43/37 65/65/61
f  38/38/59 65/65/61 63/63/60
f  46/46/55 54/54/62 66/66/62
f  46/46/55 66/66/62 61/61/56
f  43/43/37 42/42/36 62/62/57
f  43/43/37 62/62/57 65/65/61

# Mesh 'Object_3' with 32 faces
g Object_3
usemtl Carpet_01
f  67/67/63 68/68/64 69/69/65
f  67/67/63 69/69/65 70/70/66
f  71/71/67 72/72/68 73/73/69
f  71/71/67 73/73/69 74/74/70
f  75/75/71 76/76/72 77/77/73
f  75/75/71 77/77/73 78/78/74
f  79/79/75 80/80/76 81/81/77
f  79/79/75 81/81/77 82/82/78
f  78/78/74 77/77/73 72/72/68
f  78/78/74 72/72/68 71/71/67
f  82/82/78 81/81/77 68/68/64
f  82/82/78 68/68/64 67/67/63
f  77/77/73 82/82/78 67/67/63
f  77/77/73 67/67/63 72/72/68
f  76/76/72 79/79/75 82/82/78
f  76/76/72 82/82/78 77/77/73
f  72/72/68 67/67/63 70/70/66
f  72/72/68 70/70/66 73/73/69
f  71/71/79 74/74/80 83/83/80
f  71/71/79 83/83/80 84/84/81
f  78/78/74 71/71/79 84/84/81
f  78/78/74 84/84/81 85/85/82
f  75/75/71 78/78/74 85/85/82
f  75/75/71 85/85/82 86/86/83
f  80/80/84 79/79/85 87/87/86
f  80/80/84 87/87/86 88/88/84
f  75/75/87 86/86/88 89/89/88
f  75/75/87 89/89/88 90/90/88
f  79/79/85 76/76/72 91/91/89
f  79/79/85 91/91/89 87/87/86
f  76/76/72 75/75/71 90/90/90
f  76/76/72 90/90/90 91/91/89

# Mesh 'Object_4' with 30 faces
g Object_4
usemtl Carpet_01
f  92/92/91 93/93/91 94/94/33
f  92/92/91 94/94/33 95/95/33
f  96/96/92 97/97/93 98/98/94
f  96/96/92 98/98/94 99/99/95
f  100/100/96 101/101/96 97/97/93
f  100/100/96 97/97/93 96/96/92
f  102/102/97 103/103/97 101/101/96
f  102/102/97 101/101/96 100/100/96
f  99/99/95 98/98/94 93/93/91
f  99/99/95 93/93/91 92/92/91
f  92/92/98 95/95/99 104/104/99
f  92/92/98 104/104/99 105/105/100
f  100/100/101 96/96/92 106/106/102
f  100/100/101 106/106/102 107/107/103
f  99/99/95 92/92/98 105/105/100
f  99/99/95 105/105/100 108/108/104
f  102/102/105 100/100/101 107/107/103
f  102/102/105 107/107/103 109/109/105
f  96/96/92 99/99/95 108/108/104
f  96/96/92 108/108/104 106/106/102
f  98/98/94 97/97/93 110/110/57
f  98/98/94 110/110/57 111/111/61
f  97/97/93 101/101/55 112/112/56
f  97/97/93 112/112/56 110/110/57
f  93/93/59 98/98/94 111/111/61
f  93/93/59 111/111/61 113/113/60
f  94/94/58 93/93/59 113/113/60
f  94/94/58 113/113/60 114/114/58
f  101/101/55 103/103/62 115/115/62
f  101/101/55 115/115/62 112/112/56

# Mesh 'Object_5' with 40 faces
g Object_5
usemtl Carpet_01
f  116/37/31 117/38/32 118/39/33
f  116/37/31 118/39/33 119/40/34
f  120/41/35 121/42/36 122/43/37
f  120/41/35 122/43/37 123/44/38
f  124/45/39 125/46/40 121/42/36
f  124/45/39 121/42/36 120/41/35
f  126/47/41 124/45/39 120/41/35
f  126/47/41 120/41/35 127/48/42
f  127/48/42 120/41/35 123/44/38
f  127/48/42 123/44/38 128/49/43
f  129/50/44 116/37/31 119/40/34
f  129/50/44 119/40/34 130/51/45
f  131/52/46 132/53/47 124/45/39
f  131/52/46 124/45/39 126/47/41
f  132/53/47 133/54/48 125/46/40
f  132/53/47 125/46/40 124/45/39
f  134/55/49 131/52/46 126/47/41
f  134/55/49 126/47/41 135/56/50
f  136/57/51 129/50/44 130/51/45
f  136/57/51 130/51/45 137/58/52
f  138/59/53 127/48/42 128/49/43
f  138/59/53 128/49/43 139/60/54
f  135/56/50 126/47/41 127/48/42
f  135/56/50 127/48/42 138/59/53
f  139/60/54 128/49/43 129/50/44
f  139/60/54 129/50/44 136/57/51
f  128/49/43 123/44/38 116/37/31
f  128/49/43 116/37/31 129/50/44
f  123/44/38 122/43/37 117/38/32
f  123/44/38 117/38/32 116/37/31
f  121/42/36 125/46/55 140/61/56
f  121/42/36 140/61/56 141/62/57
f  118/39/58 117/38/59 142/63/60
f  118/39/58 142/63/60 143/64/58
f  117/38/59 122/43/37 144/65/61
f  117/38/59 144/65/61 142/63/60
f  125/46/55 133/54/62 145/66/62
f  125/46/55 145/66/62 140/61/56
f  122/43/37 121/42/36 141/62/57
f  122/43/37 141/62/57 144/65/61

# Mesh 'Object_6' with 32 faces
g Object_6
usemtl Carpet_01
f  146/67/63 147/68/64 148/69/65
f  146/67/63 148/69/65 149/70/66
f  150/71/67 151/72/68 152/73/69
f  150/71/67 152/73/69 153/74/70
f  154/75/71 155/76/72 156/77/73
f  154/75/71 156/77/73 157/78/74
f  158/79/75 159/80/76 160/81/77
f  158/79/75 160/81/77 161/82/78
f  157/78/74 156/77/73 151/72/68
f  157/78/74 151/72/68 150/71/67
f  161/82/78 160/81/77 147/68/64
f  161/82/78 147/68/64 146/67/63
f  156/77/73 161/82/78 146/67/63
f  156/77/73 146/67/63 151/72/68
f  155/76/72 158/79/75 161/82/78
f  155/76/72 161/82/78 156/77/73
f  151/72/68 146/67/63 149/70/66
f  151/72/68 149/70/66 152/73/69
f  150/71/79 153/74/80 162/83/80
f  150/71/79 162/83/80 163/84/81
f  157/78/74 150/71/79 163/84/81
f  157/78/74 163/84/81 164/85/82
f  154/75/71 157/78/74 164/85/82
f  154/75/71 164/85/82 165/86/83
f  159/80/84 158/79/85 166/87/86
f  159/80/84 166/87/86 167/88/84
f  154/75/87 165/86/88 168/89/88
f  154/75/87 168/89/88 169/90/88
f  158/79/85 155/76/72 170/91/89
f  158/79/85 170/91/89 166/87/86
f  155/76/72 154/75/71 169/90/90
f  155/76/72 169/90/90 170/91/89

# Mesh 'Object_7' with 18 faces
g Object_7
usemtl Carpet_01
f  171/1/1 172/2/2 173/3/3
f  171/1/1 173/3/3 174/4/4
f  171/1/1 174/4/4 175/5/5
f  171/1/1 175/5/5 176/6/5
f  171/1/6 176/6/7 177/7/7
f  171/1/6 177/7/7 178/8/7
f  172/2/2 171/1/1 178/8/8
f  172/2/2 178/8/8 179/9/8
f  172/2/9 179/9/10 180/10/10
f  172/2/9 180/10/10 181/11/10
f  173/3/3 172/2/2 181/11/11
f  173/3/3 181/11/11 182/12/11
f  173/3/12 182/12/13 183/13/13
f  173/3/12 183/13/13 184/14/13
f  175/5/14 174/4/15 185/15/14
f  175/5/14 185/15/14 186/16/14
f  174/4/4 173/3/3 184/14/16
f  174/4/4 184/14/16 185/15/16

# Mesh 'Object_8' with 30 faces
g Object_8
usemtl Carpet_01
f  117/92/91 187/93/91 188/94/33
f  117/92/91 188/94/33 118/95/33
f  121/96/92 189/97/93 190/98/94
f  121/96/92 190/98/94 122/99/95
f  125/100/96 191/101/96 189/97/93
f  125/100/96 189/97/93 121/96/92
f  133/102/97 192/103/97 191/101/96
f  133/102/97 191/101/96 125/100/96
f  122/99/95 190/98/94 187/93/91
f  122/99/95 187/93/91 117/92/91
f  117/92/98 118/95/99 193/104/99
f  117/92/98 193/104/99 194/105/100
f  125/100/101 121/96/92 195/106/102
f  125/100/101 195/106/102 196/107/103
f  122/99/95 117/92/98 194/105/100
f  122/99/95 194/105/100 197/108/104
f  133/102/105 125/100/101 196/107/103
f  133/102/105 196/107/103 198/109/105
f  121/96/92 122/99/95 197/108/104
f  121/96/92 197/108/104 195/106/102
f  190/98/94 189/97/93 199/110/57
f  190/98/94 199/110/57 200/111/61
f  189/97/93 191/101/55 201/112/56
f  189/97/93 201/112/56 199/110/57
f  187/93/59 190/98/94 200/111/61
f  187/93/59 200/111/61 202/113/60
f  188/94/58 187/93/59 202/113/60
f  188/94/58 202/113/60 203/114/58
f  191/101/55 192/103/62 204/115/62
f  191/101/55 204/115/62 201/112/56

# Mesh 'Object_9' with 24 faces
g Object_9
usemtl Carpet_01
f  205/17/106 206/18/107 207/19/108
f  205/17/106 207/19/108 208/20/109
f  209/21/110 205/17/106 208/20/109
f  209/21/110 208/20/109 210/22/110
f  211/23/111 209/21/110 210/22/110
f  211/23/111 210/22/110 212/24/111
f  210/22/112 208/20/109 213/25/113
f  210/22/112 213/25/113 214/26/114
f  208/20/109 207/19/108 215/27/115
f  208/20/109 215/27/115 213/25/113
f  212/24/116 210/22/112 214/26/114
f  212/24/116 214/26/114 216/28/116
f  209/21/117 211/23/118 217/29/118
f  209/21/117 217/29/118 218/30/119
f  205/17/106 209/21/117 218/30/119
f  205/17/106 218/30/119 219/31/120
f  206/18/107 205/17/106 219/31/120
f  206/18/107 219/31/120 220/32/121
f  206/18/122 220/32/123 221/33/123
f  206/18/122 221/33/123 222/34/123
f  215/27/124 207/19/125 223/35/124
f  215/27/124 223/35/124 224/36/124
f  207/19/108 206/18/107 222/34/126
f  207/19/108 222/34/126 223/35/126

# Mesh 'Object_10' with 32 faces
g Object_10
usemtl Carpet_01
f  225/67/127 226/68/128 227/69/129
f  225/67/127 227/69/129 228/70/130
f  229/71/131 230/72/132 231/73/133
f  229/71/131 231/73/133 232/74/134
f  233/75/135 234/76/136 235/77/137
f  233/75/135 235/77/137 236/78/138
f  237/79/139 238/80/140 239/81/141
f  237/79/139 239/81/141 240/82/142
f  236/78/138 235/77/137 230/72/132
f  236/78/138 230/72/132 229/71/131
f  240/82/142 239/81/141 226/68/128
f  240/82/142 226/68/128 225/67/127
f  235/77/137 240/82/142 225/67/127
f  235/77/137 225/67/127 230/72/132
f  234/76/136 237/79/139 240/82/142
f  234/76/136 240/82/142 235/77/137
f  230/72/132 225/67/127 228/70/130
f  230/72/132 228/70/130 231/73/133
f  229/71/143 232/74/144 241/83/144
f  229/71/143 241/83/144 242/84/145
f  236/78/138 229/71/143 242/84/145
f  236/78/138 242/84/145 243/85/146
f  233/75/135 236/78/138 243/85/146
f  233/75/135 243/85/146 244/86/147
f  238/80/148 237/79/149 245/87/150
f  238/80/148 245/87/150 246/88/148
f  233/75/151 244/86/152 247/89/152
f  233/75/151 247/89/152 248/90/152
f  237/79/149 234/76/136 249/91/153
f  237/79/149 249/91/153 245/87/150
f  234/76/136 233/75/135 248/90/154
f  234/76/136 248/90/154 249/91/153

# Mesh 'Object_11' with 18 faces
g Object_11
usemtl Carpet_01
f  172/1/1 250/2/2 251/3/3
f  172/1/1 251/3/3 173/4/4
f  172/1/1 173/4/4 252/5/5
f  172/1/1 252/5/5 253/6/5
f  172/1/6 253/6/7 254/7/7
f  172/1/6 254/7/7 179/8/7
f  250/2/2 172/1/1 179/8/8
f  250/2/2 179/8/8 255/9/8
f  250/2/9 255/9/10 256/10/10
f  250/2/9 256/10/10 257/11/10
f  251/3/3 250/2/2 257/11/11
f  251/3/3 257/11/11 258/12/11
f  251/3/12 258/12/13 259/13/13
f  251/3/12 259/13/13 260/14/13
f  252/5/14 173/4/15 184/15/14
f  252/5/14 184/15/14 261/16/14
f  173/4/4 251/3/3 260/14/16
f  173/4/4 260/14/16 184/15/16

# Mesh 'Object_12' with 18 faces
g Object_12
usemtl Carpet_01
f  250/1/1 262/2/2 263/3/3
f  250/1/1 263/3/3 251/4/4
f  250/1/1 251/4/4 264/5/5
f  250/1/1 264/5/5 265/6/5
f  250/1/6 265/6/7 266/7/7
f  250/1/6 266/7/7 255/8/7
f  262/2/2 250/1/1 255/8/8
f  262/2/2 255/8/8 267/9/8
f  262/2/9 267/9/10 268/10/10
f  262/2/9 268/10/10 269/11/10
f  263/3/3 262/2/2 269/11/11
f  263/3/3 269/11/11 270/12/11
f  263/3/12 270/12/13 271/13/13
f  263/3/12 271/13/13 272/14/13
f  264/5/14 251/4/15 260/15/14
f  264/5/14 260/15/14 273/16/14
f  251/4/4 263/3/3 272/14/16
f  251/4/4 272/14/16 260/15/16

# Mesh 'Object_13' with 32 faces
g Object_13
usemtl Carpet_01
f  274/67/155 275/68/156 276/69/157
f  274/67/155 276/69/157 277/70/158
f  278/71/159 279/72/160 280/73/161
f  278/71/159 280/73/161 281/74/162
f  282/75/163 283/76/164 284/77/165
f  282/75/163 284/77/165 285/78/166
f  286/79/167 287/80/168 288/81/169
f  286/79/167 288/81/169 289/82/170
f  285/78/166 284/77/165 279/72/160
f  285/78/166 279/72/160 278/71/159
f  289/82/170 288/81/169 275/68/156
f  289/82/170 275/68/156 274/67/155
f  284/77/165 289/82/170 274/67/155
f  284/77/165 274/67/155 279/72/160
f  283/76/164 286/79/167 289/82/170
f  283/76/164 289/82/170 284/77/165
f  279/72/160 274/67/155 277/70/158
f  279/72/160 277/70/158 280/73/161
f  278/71/171 281/74/172 290/83/172
f  278/71/171 290/83/172 291/84/173
f  285/78/166 278/71/171 291/84/173
f  285/78/166 291/84/173 292/85/174
f  282/75/163 285/78/166 292/85/174
f  282/75/163 292/85/174 293/86/175
f  287/80/176 286/79/177 294/87/178
f  287/80/176 294/87/178 295/88/176
f  282/75/179 293/86/180 296/89/180
f  282/75/179 296/89/180 297/90/180
f  286/79/177 283/76/164 298/91/181
f  286/79/177 298/91/181 294/87/178
f  283/76/164 282/75/163 297/90/182
f  283/76/164 297/90/182 298/91/181

# Mesh 'Object_14' with 24 faces
g Object_14
usemtl Carpet_01
f  299/17/183 300/18/184 301/19/185
f  299/17/183 301/19/185 302/20/186
f  303/21/187 299/17/183 302/20/186
f  303/21/187 302/20/186 304/22/187
f  305/23/188 303/21/187 304/22/187
f  305/23/188 304/22/187 306/24/188
f  304/22/189 302/20/186 307/25/190
f  304/22/189 307/25/190 308/26/191
f  302/20/186 301/19/185 309/27/192
f  302/20/186 309/27/192 307/25/190
f  306/24/193 304/22/189 308/26/191
f  306/24/193 308/26/191 310/28/193
f  303/21/194 305/23/195 311/29/195
f  303/21/194 311/29/195 312/30/196
f  299/17/183 303/21/194 312/30/196
f  299/17/183 312/30/196 313/31/197
f  300/18/184 299/17/183 313/31/197
f  300/18/184 313/31/197 314/32/198
f  300/18/199 314/32/200 315/33/200
f  300/18/199 315/33/200 316/34/200
f  309/27/201 301/19/202 317/35/201
f  309/27/201 317/35/201 318/36/201
f  301/19/185 300/18/184 316/34/203
f  301/19/185 316/34/203 317/35/203

# Mesh 'Object_15' with 32 faces
g Object_15
usemtl Carpet_01
f  319/67/204 320/68/205 321/69/206
f  319/67/204 321/69/206 322/70/207
f  323/71/208 324/72/209 325/73/210
f  323/71/208 325/73/210 326/74/33
f  327/75/211 328/76/212 329/77/213
f  327/75/211 329/77/213 330/78/214
f  331/79/215 332/80/216 333/81/217
f  331/79/215 333/81/217 334/82/218
f  330/78/214 329/77/213 324/72/209
f  330/78/214 324/72/209 323/71/208
f  334/82/218 333/81/217 320/68/205
f  334/82/218 320/68/205 319/67/204
f  329/77/213 334/82/218 319/67/204
f  329/77/213 319/67/204 324/72/209
f  328/76/212 331/79/215 334/82/218
f  328/76/212 334/82/218 329/77/213
f  324/72/209 319/67/204 322/70/207
f  324/72/209 322/70/207 325/73/210
f  323/71/98 326/74/99 335/83/99
f  323/71/98 335/83/99 336/84/100
f  330/78/214 323/71/98 336/84/100
f  330/78/214 336/84/100 337/85/219
f  327/75/211 330/78/214 337/85/219
f  327/75/211 337/85/219 338/86/220
f  332/80/221 331/79/222 339/87/223
f  332/80/221 339/87/223 340/88/221
f  327/75/6 338/86/7 341/89/7
f  327/75/6 341/89/7 342/90/7
f  331/79/222 328/76/212 343/91/224
f  331/79/222 343/91/224 339/87/223
f  328/76/212 327/75/211 342/90/30
f  328/76/212 342/90/30 343/91/224

# Mesh 'Object_16' with 30 faces
g Object_16
usemtl Carpet_01
f  344/92/91 345/93/91 346/94/33
f  344/92/91 346/94/33 347/95/33
f  348/96/92 349/97/93 350/98/94
f  348/96/92 350/98/94 351/99/95
f  352/100/96 353/101/96 349/97/93
f  352/100/96 349/97/93 348/96/92
f  354/102/97 355/103/97 353/101/96
f  354/102/97 353/101/96 352/100/96
f  351/99/95 350/98/94 345/93/91
f  351/99/95 345/93/91 344/92/91
f  344/92/98 347/95/99 356/104/99
f  344/92/98 356/104/99 357/105/100
f  352/100/101 348/96/92 358/106/102
f  352/100/101 358/106/102 359/107/103
f  351/99/95 344/92/98 357/105/100
f  351/99/95 357/105/100 360/108/104
f  354/102/105 352/100/101 359/107/103
f  354/102/105 359/107/103 361/109/105
f  348/96/92 351/99/95 360/108/104
f  348/96/92 360/108/104 358/106/102
f  350/98/94 349/97/93 362/110/57
f  350/98/94 362/110/57 363/111/61
f  349/97/93 353/101/55 364/112/56
f  349/97/93 364/112/56 362/110/57
f  345/93/59 350/98/94 363/111/61
f  345/93/59 363/111/61 365/113/60
f  346/94/58 345/93/59 365/113/60
f  346/94/58 365/113/60 366/114/58
f  353/101/55 355/103/62 367/115/62
f  353/101/55 367/115/62 364/112/56

# Mesh 'Object_17' with 40 faces
g Object_17
usemtl Carpet_01
f  368/37/225 369/38/226 370/39/227
f  368/37/225 370/39/227 371/40/228
f  372/41/229 373/42/230 374/43/231
f  372/41/229 374/43/231 375/44/232
f  376/45/233 377/46/234 373/42/230
f  376/45/233 373/42/230 372/41/229
f  378/47/235 376/45/233 372/41/229
f  378/47/235 372/41/229 379/48/236
f  379/48/236 372/41/229 375/44/232
f  379/48/236 375/44/232 380/49/237
f  381/50/238 368/37/225 371/40/228
f  381/50/238 371/40/228 382/51/239
f  383/52/240 384/53/241 376/45/233
f  383/52/240 376/45/233 378/47/235
f  384/53/241 385/54/242 377/46/234
f  384/53/241 377/46/234 376/45/233
f  386/55/243 383/52/240 378/47/235
f  386/55/243 378/47/235 387/56/244
f  388/57/245 381/50/238 382/51/239
f  388/57/245 382/51/239 389/58/246
f  390/59/247 379/48/236 380/49/237
f  390/59/247 380/49/237 391/60/248
f  387/56/244 378/47/235 379/48/236
f  387/56/244 379/48/236 390/59/247
f  391/60/248 380/49/237 381/50/238
f  391/60/248 381/50/238 388/57/245
f  380/49/237 375/44/232 368/37/225
f  380/49/237 368/37/225 381/50/238
f  375/44/232 374/43/231 369/38/226
f  375/44/232 369/38/226 368/37/225
f  373/42/230 377/46/249 392/61/250
f  373/42/230 392/61/250 393/62/251
f  370/39/252 369/38/253 394/63/254
f  370/39/252 394/63/254 395/64/252
f  369/38/253 374/43/231 396/65/255
f  369/38/253 396/65/255 394/63/254
f  377/46/249 385/54/256 397/66/256
f  377/46/249 397/66/256 392/61/250
f  374/43/231 373/42/230 393/62/251
f  374/43/231 393/62/251 396/65/255

